<svg xmlns="http://www.w3.org/2000/svg" xmlns:xlink="http://www.w3.org/1999/xlink" version="1.0" x="0px" y="0px" viewBox="0 0 90 41.5" style="enable-background:new 0 0 90 33.2;" xml:space="preserve"><style type="text/css">
	.st0{fill-rule:evenodd;clip-rule:evenodd;}
</style><g><path class="st0" d="M81.5,31.3c-0.5,0.3-1.2,0.3-1.8,0.4c-0.2,0-0.4,0-0.6,0.1c-0.3,0.1-0.6,0.1-1,0.1c-0.3,0-0.6,0.1-0.9,0   c-0.1,0-0.3,0-0.4,0c-0.2,0-0.3,0-0.5,0c-0.4,0-0.7-0.2-1.1-0.2c-0.1,0-0.2-0.1-0.3-0.1c-0.4-0.2-0.9-0.2-1.3-0.1   c-0.4,0.1-0.7,0.2-1.1,0.1c-0.3-0.1-0.6,0-0.8,0.2c-0.2,0.2-0.4,0.2-0.6,0c-0.1,0-0.2-0.1-0.3-0.1c-0.2,0-0.3,0.2-0.4,0.2   c-0.2,0-0.3-0.1-0.5-0.1c-0.4,0.1-0.7,0-1.1,0c-0.2,0-0.4,0-0.6,0.1c-0.7,0.3-0.7,0.3-1.1,0.2c-0.2-0.1-0.4-0.1-0.6,0   c-0.2,0-0.3,0.1-0.5,0.1c-0.8-0.1-1.7,0-2.5,0c-0.3,0-0.7,0-1,0.2c-0.4,0.2-0.9,0.3-1.3,0.2c-0.2,0-0.5,0-0.7-0.1   c-0.6-0.1-1.2-0.1-1.7,0c-0.7,0.1-1.5,0-2.2,0c-0.5,0-0.9-0.1-1.4,0c-0.4,0.1-0.8,0-1.3-0.1c-0.3-0.1-0.6-0.1-0.9,0   c-0.1,0-0.3,0.1-0.4,0.1c-0.4,0-0.7,0-1.1,0c-0.7,0-1.3-0.1-2-0.1c-0.3,0-0.7-0.1-1.1-0.1c-0.9-0.1-1.8-0.2-2.7-0.3   c-0.3,0-0.6-0.1-1-0.2c-0.2,0-0.4,0-0.6-0.1c-0.1,0-0.2,0-0.3,0c-0.6-0.4-1.4-0.2-2.1-0.5c-0.1,0-0.2,0-0.3,0c-0.5,0.2-1,0-1.4-0.1   c-0.6-0.2-1.1-0.3-1.7-0.4c-0.2,0-0.4-0.1-0.7-0.2c-0.2,0-0.3-0.1-0.5-0.1c-0.3,0-0.5,0-0.7-0.2c0,0-0.1,0-0.1,0   c-1.1-0.3-2.2-0.9-3.3-1.1c-0.1,0-0.2-0.1-0.4-0.1c-0.6-0.4-1.2-0.6-1.9-0.7c-0.5-0.1-1-0.3-1.4-0.5c-1.3-0.6-2.6-1.4-3.8-2.1   c-0.4-0.2-0.8-0.3-1.1-0.5c-0.3-0.1-0.6-0.3-0.8-0.5c-0.6-0.5-1.3-1-2-1.4c-0.4-0.3-0.9-0.5-1.3-0.8c-0.5-0.2-0.9-0.4-1.3-0.8   c-0.1-0.1-0.2-0.1-0.3-0.1c-0.2-0.1-0.5,0-0.6,0.2c-0.1,0.4-0.3,0.7-0.3,1.1c-0.1,0.8-0.3,1.5-0.5,2.3c-0.1,0.3-0.2,0.6-0.2,0.9   c0,0.6-0.2,1.2-0.5,1.8c-0.2,0.3-0.3,1.1-0.2,1.4c0,0.1,0.1,0.3,0.1,0.4c0,0.2,0,0.4-0.1,0.6c-0.2,0.3-0.3,0.7-0.2,1.1   c0,0.3-0.1,0.7,0,1.1c-0.1,0.3-0.2,0.5-0.3,0.8c0,0.1-0.1,0.1-0.2,0c0,0-0.1,0-0.1-0.1c-0.2-0.3-0.3-0.6-0.2-1   c0.1-0.5-0.1-0.8-0.5-1.1c0,0,0,0-0.1-0.1c0-0.3,0-0.6-0.2-0.9c0-0.1-0.1-0.1-0.2,0c-0.1,0.1-0.2,0.2-0.2,0.3l0,0   c-0.3-0.7-0.6-1.4-0.9-2c-0.5-1-0.9-2-1.2-3c-0.2-0.6-0.4-1.3-0.6-1.9c-0.5-1.7-1-3.3-1.7-4.8c-0.3-0.7-0.6-1.5-1-2.2   c-0.3-0.5-0.5-1-0.7-1.5c-0.2-0.5-0.5-1-0.8-1.4c-0.4-0.9-1.1-1.8-1.5-2.7c-0.2-0.5-0.5-1-0.9-1.4C5.1,9.1,4.8,8.9,4.6,8.7   C4.4,8.5,4.2,8.2,4.2,7.9C4.2,7.6,4,7.2,3.8,6.9C3.6,6.7,3.6,6.4,3.4,6.2C3.3,5.9,3.1,5.6,2.9,5.4C2.7,5.1,2.5,4.8,2.3,4.5   C2.1,4.2,1.8,3.9,1.5,3.7C1,3.4,0.6,3,0.3,2.6C0,2.3-0.1,1.9,0.1,1.6c0.2-0.5,0.5-0.9,1-1.1C1.6,0.3,2.1,0.1,2.7,0C2.9,0,3,0,3.1,0   c0.3,0,0.5,0,0.8,0c0.4,0,0.7,0.1,1.1,0.1C5.3,0.1,5.6,0.1,6,0C6.4,0,6.8,0.1,7.2,0.2c0.4,0.1,0.8,0.2,1.2,0.4   C8.8,0.8,9.1,0.9,9.5,1c0.5,0.2,1,0.4,1.5,0.6c0.3,0.2,0.7,0.2,1,0.4c0.3,0.2,0.7,0.3,1,0.4c0.4,0.1,0.8,0.1,1.1,0.2   c0.7,0.2,1.3,0.2,2,0.2c0.2,0,0.5,0,0.7,0.1c1,0.1,1.9,0.2,2.9,0.3c0.5,0.1,1,0.1,1.5,0.1c1.4,0.1,2.8,0.1,4.2,0   c0.8-0.1,1.5-0.1,2.3-0.2c0.3,0,0.6,0,0.9,0.1c0.3,0.2,0.6,0.2,0.9,0.1c0.2,0,0.4-0.1,0.7-0.1c0.2,0,0.3,0,0.5,0   c0.8,0.2,1.7,0.3,2.5,0.5c0.2,0,0.3,0.1,0.5,0.1C34.3,3.9,35,4,35.7,4c0.1,0,0.2,0.1,0.2,0.1c0.1,0.1,0,0.2-0.1,0.3   c-0.3,0.2-0.6,0.5-1,0.6C33.9,5.5,33,5.9,32,6.3c-0.4,0.1-0.7,0.2-1.1,0.3C30,6.9,29,7.1,28.1,7.2C27,7.3,26,7.5,25,7.7   c-0.2,0-0.3,0.1-0.5,0.1c-0.9,0.1-1.7,0.1-2.6,0.2c-0.7-0.1-1.5,0.2-2.2,0.1c-0.6,0-1.1,0.1-1.6,0.1c-0.1,0-0.2,0.1-0.3,0.1   c-0.1,0-0.2,0.2-0.1,0.3C17.8,8.9,17.9,9,18,9.2c0.4,0.4,0.8,0.8,1.2,1.2c0.3,0.2,0.5,0.5,0.8,0.7c0.6,0.5,1.1,1.2,1.8,1.6   c0.5,0.6,1.2,1.2,1.8,1.8c0.6,0.5,1.2,1,1.8,1.5c0.8,0.6,1.7,1.2,2.5,1.8c1,0.6,1.9,1.3,3,1.8c0.8,0.4,1.5,0.8,2.2,1.2   c0.9,0.5,1.8,1,2.7,1.4c0.4,0.2,0.8,0.4,1.3,0.5c0.4,0.2,0.8,0.3,1.3,0.5c0.2,0.1,0.4,0.2,0.6,0.2c1.1,0.3,2.2,0.7,3.2,1.1   c0.2,0.1,0.4,0.2,0.6,0.2c0.7,0.2,1.4,0.3,2.2,0.5c0.1,0,0.2,0,0.3,0.1c1.3,0.4,2.7,0.6,4.1,0.9c0.2,0,0.3,0,0.5,0.1   c0.3,0.1,0.6,0.1,1,0.2c0.7,0.2,1.3,0.3,2,0.3c0.6,0.1,1.2,0.2,1.8,0.1c0.6,0,1.2,0,1.8,0c0.7,0,1.5,0,2.2,0.1c0.3,0,0.6,0.1,0.9,0   c0.5-0.1,1-0.1,1.5,0c0.4,0,0.8,0.1,1.2,0.1c0.3,0,0.6,0.1,0.8,0.3c0.2,0.2,0.4,0.2,0.7,0.3c0.2,0,0.3,0.1,0.5,0.1   c0.1,0,0.3,0,0.4,0c0.5-0.2,1.1-0.2,1.6-0.2c0.7,0,1.4,0.1,2,0.2c0.2,0,0.3,0.1,0.4,0.3c0.1,0.1,0.2,0.2,0.3,0.2c0.4,0,0.8,0,1.2,0   c1,0,1.9-0.1,2.9,0c0.4,0.1,0.7-0.1,1-0.3c0.1-0.1,0.2-0.2,0.3-0.3c0.2-0.2,0.5-0.2,0.7-0.2c0.1,0,0.2,0.1,0.3,0.1   c0.4,0.1,0.8,0.1,1.2,0.1c0.2,0,0.3,0,0.5-0.1c0.7-0.2,1.5-0.2,2.2-0.2c0.2,0,0.3,0,0.5,0.1c0.4,0.3,0.9,0.5,1.5,0.4   c0.3,0,0.6,0.1,1,0.1c0.6,0,1.3,0,1.9,0c0.1,0,0.3,0,0.4,0c0,0,0.1,0.1,0.1,0.1c0,0.1,0,0.1-0.1,0.2c-0.2,0.1-0.4,0.1-0.6,0.2   c-0.1,0-0.2,0.1-0.3,0.1c0,0-0.1,0.1-0.1,0.2c0,0.1,0,0.1,0.1,0.2c0.1,0,0.2,0.1,0.3,0.1c0.2,0,0.4,0,0.6,0   c0.2,0.2,0.3,0.5,0.4,0.7c0,0-0.1,0.1-0.1,0.1C84.4,29.9,84.2,30,84,30c-0.8,0.1-1.5,0.3-2.3,0.5c-0.1,0-0.2,0.1-0.3,0.1   c-0.7,0-1.4,0.2-2.1,0.3c0,0-0.1,0-0.1,0c-0.5,0.1-1,0.2-1.5,0.2c-0.3,0-0.5,0.1-0.7,0.2c0,0,0,0.1,0,0.2c0,0,0,0.1,0.1,0.1   c0,0,0.1,0,0.1,0c0.4,0,0.9,0.1,1.4,0.1c0.1,0,0.3,0,0.3-0.1c0.2-0.2,0.5-0.3,0.8-0.3c0.2,0,0.3,0.1,0.5,0.1c0.2,0.1,0.4,0.1,0.6,0   C80.9,31.2,81.2,31.3,81.5,31.3L81.5,31.3z M69.8,28.7c0.2,0,0.4-0.1,0.6-0.1c0,0,0,0,0-0.1c0,0,0-0.1,0-0.1   c-0.3-0.2-0.7-0.2-1.1-0.1c0,0-0.1,0.1-0.1,0.2c0,0.1,0.1,0.2,0.2,0.2C69.5,28.7,69.6,28.7,69.8,28.7z M14.1,27.8   c-0.1,0-0.1,0-0.1,0c0,0,0,0.1,0,0.1c0.1,0.3,0.2,0.7,0.3,1c0,0.1,0.1,0.1,0.2,0.2c0,0,0.1,0,0.1,0c0,0,0,0,0.1-0.1   c0,0,0-0.1,0-0.1c-0.1-0.2-0.2-0.3-0.3-0.5C14.3,28.2,14.2,28,14.1,27.8z M82.1,29.2c0.2,0,0.4-0.1,0.5-0.1c0,0,0.1-0.1,0.1-0.2   c0-0.1,0-0.1-0.1-0.1c-0.2-0.1-0.5-0.1-0.7,0c-0.1,0-0.1,0.1-0.2,0.2c0,0.1,0,0.1,0,0.2C81.9,29.1,82,29.1,82.1,29.2z M82.6,29.4   C82.6,29.4,82.5,29.4,82.6,29.4c-0.1,0-0.1,0.1-0.2,0.1c0,0,0.1,0,0.1,0C82.5,29.5,82.6,29.5,82.6,29.4z M83.4,29.3   C83.4,29.3,83.3,29.3,83.4,29.3c-0.1,0.1-0.1,0.1,0,0.1C83.4,29.5,83.5,29.4,83.4,29.3C83.5,29.4,83.5,29.3,83.4,29.3z M71.5,28.5   L71.5,28.5L71.5,28.5L71.5,28.5z M68.4,28.6c0,0-0.1,0-0.1,0c0,0,0,0,0,0.1C68.3,28.6,68.3,28.6,68.4,28.6   C68.4,28.7,68.4,28.6,68.4,28.6z M76.1,31.3L76.1,31.3L76.1,31.3L76.1,31.3z M74.5,28C74.4,28,74.4,28,74.5,28   C74.4,28.1,74.5,28.1,74.5,28C74.5,28,74.5,28,74.5,28z"/><path class="st0" d="M89.8,28.6c-0.1,0.2-0.3,0.3-0.4,0.3c-0.4,0-0.7-0.1-1.1-0.1c0,0-0.1,0-0.1,0c0,0-0.1-0.1-0.1-0.2   c0,0,0-0.1,0.1-0.1c0.2-0.1,0.5-0.2,0.7-0.1C89.2,28.5,89.5,28.5,89.8,28.6z"/><path class="st0" d="M72.1,27.7c-0.1,0-0.1,0-0.2,0c0,0,0,0,0,0C72,27.6,72.1,27.6,72.1,27.7C72.1,27.6,72.1,27.7,72.1,27.7z"/><path class="st0" d="M82.2,31.2C82.1,31.1,82.1,31.1,82.2,31.2C82.2,31.1,82.2,31.1,82.2,31.2C82.3,31.1,82.3,31.2,82.2,31.2z"/><polygon class="st0" points="83.2,31 83.2,31.1 83.2,31.1  "/><path class="st0" d="M90,29.3c-0.1,0-0.2,0-0.2,0c0,0,0,0,0.1,0C89.9,29.3,89.9,29.4,90,29.3L90,29.3z"/><polygon class="st0" points="90,29.4 90,29.3 90,29.3  "/></g><text x="0" y="48.2" fill="#000000" font-size="5px" font-weight="bold" font-family="'Helvetica Neue', Helvetica, Arial-Unicode, Arial, Sans-serif">Created by Aiden Regalado</text><text x="0" y="53.2" fill="#000000" font-size="5px" font-weight="bold" font-family="'Helvetica Neue', Helvetica, Arial-Unicode, Arial, Sans-serif">from the Noun Project</text></svg>